<?xml version="1.0" encoding="UTF-8"?>
<svg version="1.1" xmlns="http://www.w3.org/2000/svg" viewBox="0 0 501 498" width="501" height="498">
<path d="M0 0 C6.75878688 2.53352596 13.59871007 4.75242566 20.47949219 6.92993164 C31.62022638 10.45980543 42.68263032 14.18004005 53.72949219 17.99243164 C67.4968585 22.74086218 81.30947776 27.32662172 95.16699219 31.80493164 C109.62543497 36.47779763 124.028563 41.2840076 138.39199829 46.24093628 C150.77072526 50.5099466 163.19786095 54.60357188 175.66397095 58.60958862 C187.79908564 62.51214417 199.86817282 66.58199615 211.91506958 70.74829102 C225.18738758 75.33565207 238.52561641 79.67439808 251.91040039 83.92260742 C255.06353181 84.93185523 258.20529075 85.97154176 261.34375 87.02539062 C264.06495663 87.93846469 266.78973257 88.84048888 269.51464844 89.74243164 C271.58626992 90.42991084 273.6578844 91.11741115 275.72949219 91.80493164 C276.76654297 92.14782227 277.80359375 92.49071289 278.87207031 92.84399414 C279.88849609 93.18172852 280.90492188 93.51946289 281.95214844 93.86743164 C282.85843994 94.1677832 283.76473145 94.46813477 284.69848633 94.77758789 C286.98279424 95.56814367 289.2376738 96.3948381 291.49584961 97.25463867 C295.66173872 98.82728018 299.87588493 100.20296986 304.12011719 101.54711914 C305.72564635 102.06125345 307.33111314 102.57558256 308.93652344 103.09008789 C311.42133674 103.8841531 313.90661944 104.67664043 316.39306641 105.46557617 C345.64021531 114.75748778 345.64021531 114.75748778 352.66699219 121.80493164 C352.66699219 122.46493164 352.66699219 123.12493164 352.66699219 123.80493164 C353.32699219 123.80493164 353.98699219 123.80493164 354.66699219 123.80493164 C355.48197781 125.40783694 356.29389146 127.01230442 357.10449219 128.61743164 C357.78318359 129.95741211 357.78318359 129.95741211 358.47558594 131.32446289 C361.98589703 138.6328155 361.91358535 148.81855899 359.94824219 156.67993164 C359.0059028 158.86859087 357.95422937 160.8020922 356.66699219 162.80493164 C356.31636719 163.4249707 355.96574219 164.04500977 355.60449219 164.68383789 C348.8705131 175.50964454 336.26249232 178.27038396 324.89257812 182.04711914 C322.338695 182.9167169 319.84386711 183.89059665 317.35449219 184.92993164 C313.39676288 186.57026036 309.3638929 187.91856993 305.29199219 189.24243164 C300.83395364 190.69502619 296.47006875 192.24816515 292.16699219 194.11743164 C285.54904007 196.95748863 278.76015619 199.23875791 271.95141602 201.57055664 C263.54098922 204.46504978 255.21528999 207.55887105 246.91210938 210.74731445 C242.50567703 212.42617279 238.12362132 214.00585571 233.59277344 215.31665039 C229.37071363 216.54287979 225.35693805 218.07777132 221.29248047 219.74731445 C216.44867821 221.69852808 211.52159225 223.42368856 206.60449219 225.17993164 C205.51773193 225.56914795 204.43097168 225.95836426 203.3112793 226.359375 C201.12647946 227.14116929 198.94134559 227.9220308 196.75585938 228.7019043 C193.94624787 229.70521008 191.13843685 230.71337819 188.33105469 231.72290039 C186.79731391 232.27139463 185.26346804 232.81959518 183.72949219 233.36743164 C183.03267334 233.6186377 182.33585449 233.86984375 181.61791992 234.12866211 C176.8965678 235.80493164 176.8965678 235.80493164 174.66699219 235.80493164 C174.56354492 236.44809326 174.46009766 237.09125488 174.35351562 237.75390625 C173.43707151 241.82673771 172.06644324 245.68640912 170.68261719 249.62133789 C170.23641022 250.89979836 170.23641022 250.89979836 169.78118896 252.2040863 C169.15069919 254.00756667 168.51851882 255.81045679 167.88476562 257.61279297 C166.92944754 260.33197912 165.9814359 263.05363132 165.03417969 265.77563477 C162.16263597 273.98894742 159.20825846 282.10258555 155.77539062 290.1015625 C153.80339762 294.91122738 152.25515774 299.85819959 150.66699219 304.80493164 C148.35107493 311.89560118 145.95810903 318.83917528 142.94360352 325.66821289 C141.45792135 329.31863255 140.24111188 333.03405292 139.03027344 336.78149414 C135.48727714 347.5713285 131.48717485 358.18093928 127.47949219 368.80493164 C126.06554034 372.55351843 124.65600054 376.30372222 123.24902344 380.05493164 C122.93334915 380.88742432 122.61767487 381.71991699 122.29243469 382.57763672 C120.42687649 387.55287506 118.79126553 392.55017597 117.32319641 397.65731812 C114.62972135 406.47247543 109.39081675 413.77794016 101.66699219 418.80493164 C92.14398827 423.34153135 83.59863691 424.17928182 73.54199219 421.17993164 C64.90947805 418.03982688 58.17974306 413.08472411 54.16162109 404.6418457 C50.7144387 395.80458947 47.63025719 386.9014793 44.77047729 377.85760498 C43.49735254 373.8333766 42.20613405 369.81498327 40.91308594 365.79711914 C40.64841019 364.97434479 40.38373444 364.15157043 40.11103821 363.30386353 C36.7587165 352.92959265 33.1840453 342.6311379 29.58837891 332.33911133 C27.26907763 325.67356297 25.11287975 319.02165201 23.32983398 312.18823242 C22.53293239 309.32290889 21.52102475 306.58847987 20.43945312 303.82055664 C18.92270941 299.86283347 17.62602156 295.82709713 16.29199219 291.80493164 C15.98745117 290.8908252 15.68291016 289.97671875 15.36914062 289.03491211 C13.08120456 282.13621951 10.9055526 275.20888908 8.80761719 268.25024414 C7.73285443 264.81546489 7.73285443 264.81546489 6.27636719 261.67211914 C3.39752039 255.14636819 1.66226321 248.14245704 -0.37207031 241.32055664 C-2.08595631 235.64249157 -3.95803834 230.24519504 -6.33300781 224.80493164 C-7.55160799 221.26533199 -8.65633382 217.69106085 -9.77050781 214.11743164 C-13.11202187 203.54256901 -16.56683347 193.01023522 -20.08300781 182.49243164 C-20.33379089 181.7417038 -20.58457397 180.99097595 -20.84295654 180.21749878 C-22.67086944 174.74593841 -24.50169168 169.27535371 -26.33300781 163.80493164 C-28.25959031 158.04934995 -30.18492495 152.29335497 -32.10778809 146.53652954 C-32.87464182 144.2423558 -33.64332378 141.94880038 -34.41210938 139.65527344 C-36.57132351 133.19933328 -38.72081078 126.75006187 -40.57495117 120.19799805 C-41.24010792 118.09820208 -41.9793985 116.06113162 -42.76123047 114.00292969 C-44.24281812 110.09446815 -45.56255884 106.14318289 -46.82910156 102.16040039 C-47.30438509 100.68004956 -47.77981467 99.19974561 -48.25537109 97.71948242 C-48.5022467 96.94896545 -48.74912231 96.17844849 -49.003479 95.38458252 C-53.98326295 79.85401261 -59.15063253 64.3967534 -64.4987793 48.98925781 C-64.74147049 48.28833511 -64.98416168 47.58741241 -65.23420715 46.86524963 C-65.88584357 44.98462003 -66.54022334 43.1049416 -67.19482422 41.2253418 C-69.25295067 35.04036721 -70.72376223 29.46958879 -70.70800781 22.92993164 C-70.70639648 22.22884277 -70.70478516 21.52775391 -70.703125 20.80541992 C-70.56562746 14.98064664 -69.39354172 10.70803188 -66.33300781 5.80493164 C-65.97464844 5.1874707 -65.61628906 4.57000977 -65.24707031 3.93383789 C-64.20800781 2.24243164 -64.20800781 2.24243164 -62.33300781 -0.19506836 C-61.67300781 -0.19506836 -61.01300781 -0.19506836 -60.33300781 -0.19506836 C-60.33300781 -0.85506836 -60.33300781 -1.51506836 -60.33300781 -2.19506836 C-40.62853956 -16.78509717 -20.51327225 -7.76009619 0 0 Z" fill="black" transform="translate(105.3330078125,45.195068359375)"/>
<path d="M0 0 C-0.55429687 0.33773437 -1.10859375 0.67546875 -1.6796875 1.0234375 C-2.40414062 1.46945313 -3.12859375 1.91546875 -3.875 2.375 C-4.59429687 2.81585938 -5.31359375 3.25671875 -6.0546875 3.7109375 C-8.11793582 4.9853713 -8.11793582 4.9853713 -10 7 C-10 6.34 -10 5.68 -10 5 C-10.66 5 -11.32 5 -12 5 C-12.20625 5.556875 -12.4125 6.11375 -12.625 6.6875 C-14.55000774 9.92501302 -17.03850902 11.68231141 -20 14 C-20 11 -20 11 -18 8 C-17.34 8 -16.68 8 -16 8 C-16 7.34 -16 6.68 -16 6 C-13.91796875 4.52734375 -13.91796875 4.52734375 -11.1875 2.9375 C-10.29417969 2.41027344 -9.40085937 1.88304687 -8.48046875 1.33984375 C-3.71033654 -1.23677885 -3.71033654 -1.23677885 0 0 Z" fill="black" transform="translate(61,37)"/>
<path d="M0 0 C-0.83144531 0.50660156 -0.83144531 0.50660156 -1.6796875 1.0234375 C-2.40414062 1.46945313 -3.12859375 1.91546875 -3.875 2.375 C-4.95394531 3.03628906 -4.95394531 3.03628906 -6.0546875 3.7109375 C-8.11793582 4.9853713 -8.11793582 4.9853713 -10 7 C-10.33 5.68 -10.66 4.36 -11 3 C-9.73581754 2.30034557 -8.46334598 1.61565237 -7.1875 0.9375 C-6.47980469 0.55464844 -5.77210937 0.17179687 -5.04296875 -0.22265625 C-3 -1 -3 -1 0 0 Z" fill="black" transform="translate(61,37)"/>
</svg>
